<svg width="320" height="240" viewBox="0 0 320 240" fill="none" xmlns="http://www.w3.org/2000/svg">
  <!-- ظل الرأس -->
  <ellipse cx="160" cy="210" rx="55" ry="14" fill="#bca27a" opacity="0.22"/>
  <!-- قرن أيسر كبير وملتوي -->
  <path d="M60,180 Q10,60 110,45 Q30,95 90,180" stroke="url(#hornGradient)" stroke-width="16" fill="none" stroke-linecap="round"/>
  <!-- قرن أيمن كبير وملتوي -->
  <path d="M260,180 Q310,60 210,45 Q290,95 230,180" stroke="url(#hornGradient)" stroke-width="16" fill="none" stroke-linecap="round"/>
  <!-- رأس الحيوان -->
  <ellipse cx="160" cy="140" rx="70" ry="66" fill="#e2c89c" stroke="#6B4F27" stroke-width="4"/>
  <!-- أذن يسرى -->
  <ellipse cx="90" cy="110" rx="18" ry="28" fill="#e2c89c" stroke="#6B4F27" stroke-width="3" transform="rotate(-20 90 110)"/>
  <!-- أذن يمنى -->
  <ellipse cx="230" cy="110" rx="18" ry="28" fill="#e2c89c" stroke="#6B4F27" stroke-width="3" transform="rotate(20 230 110)"/>
  <!-- تفاصيل الأذن اليسرى -->
  <path d="M90,95 Q80,110 94,130" stroke="#bfa16b" stroke-width="2" fill="none"/>
  <!-- تفاصيل الأذن اليمنى -->
  <path d="M230,95 Q240,110 226,130" stroke="#bfa16b" stroke-width="2" fill="none"/>
  <!-- أنف بتفاصيل -->
  <ellipse cx="160" cy="185" rx="17" ry="8" fill="#a8885a" opacity="0.8"/>
  <ellipse cx="152" cy="185" rx="2.5" ry="3.5" fill="#6B4F27"/>
  <ellipse cx="168" cy="185" rx="2.5" ry="3.5" fill="#6B4F27"/>
  <!-- فم بسيط -->
  <path d="M153,200 Q160,207 167,200" stroke="#6B4F27" stroke-width="2.2" fill="none" stroke-linecap="round"/>
  <!-- عين يسرى مع لمعة -->
  <ellipse cx="135" cy="145" rx="7" ry="10" fill="#6B4F27"/>
  <ellipse cx="133" cy="143" rx="2.2" ry="2.5" fill="#fff" opacity="0.7"/>
  <!-- عين يمنى مع لمعة -->
  <ellipse cx="185" cy="145" rx="7" ry="10" fill="#6B4F27"/>
  <ellipse cx="187" cy="143" rx="2.2" ry="2.5" fill="#fff" opacity="0.7"/>
  <!-- تدرج لوني للقرون -->
  <defs>
    <linearGradient id="hornGradient" x1="10" y1="20" x2="310" y2="20" gradientUnits="userSpaceOnUse">
      <stop stop-color="#8d6742"/>
      <stop offset="1" stop-color="#6B4F27"/>
    </linearGradient>
  </defs>
</svg>